<svg data-v-decfdd8a="" version="1.0" xmlns="http://www.w3.org/2000/svg" xmlns:xlink="http://www.w3.org/1999/xlink" width="100%" height="100%" viewBox="0 0 340.000000 250.000000" preserveAspectRatio="xMidYMid meet" color-interpolation-filters="sRGB" style="margin: auto;"> <rect data-v-decfdd8a="" x="0" y="0" width="100%" height="100%" fill="#FFFFFF" fill-opacity="1" class="background"></rect> <!----> <g data-v-decfdd8a="" fill="#38761D" class="icon-text-wrapper icon-svg-group iconsvg" transform="translate(114.41999816894531,78.45269775390625)"><g class="iconsvg-imagesvg" transform="translate(25.580001831054688,0)"><g><rect fill="#38761D" fill-opacity="0" stroke-width="2" x="0" y="0" width="60" height="65.32460886890439" class="image-rect"></rect> <svg x="0" y="0" width="60" height="65.32460886890439" filtersec="colorsb1271613372" class="image-svg-svg primary" style="overflow: visible;"><svg xmlns="http://www.w3.org/2000/svg" viewBox="-0.000055655837059020996 0.02899777889251709 175.26791381835938 190.82101440429688"><path d="M87.57 100.49q10.89-8.16 21.77-16.33L173.27 36a7.68 7.68 0 0 1 .65-.47c.31-.2.59-.57 1-.39s.29.64.29 1v3.06q0 40.14.05 80.26a4.26 4.26 0 0 1-1.84 3.77c-8.17 6.37-16.26 12.84-24.39 19.26-.4.32-.77 1-1.31.76s-.31-1.07-.31-1.63V90.37a7.44 7.44 0 0 0-.22-2.78c-1.82 1.38-3.55 2.69-5.26 4L89 132.75c-.41.32-.77.77-1.38.74z" fill="#38761D"></path><path d="M87.57 100.49l.06 33c-2.3-1.08-4.09-2.88-6.06-4.41q-26.23-20.34-52.4-40.73c-.33-.25-.62-.76-1.07-.57s-.27.75-.28 1.15c0 2.95-.05 5.91-.06 8.86v44c0 .49.32 1.19-.31 1.44s-.8-.43-1.16-.71q-12.51-9.9-25-19.78a2.77 2.77 0 0 1-1.2-2.43V37.62c0-.82-.35-2 .33-2.39s1.34.67 2 1.14L87 100.14a6.06 6.06 0 0 0 .57.35z" fill="#6AA84F"></path><path d="M87.59 45.21L139.89 6c2.45-1.84 4.89-3.67 7.35-5.49.28-.21.54-.64 1-.42s.26.67.26 1v38.52a2 2 0 0 1-.93 1.73q-13.53 10.14-27 20.32c-.28.21-.5.68-.94.4s-.27-.68-.27-1v-5.32c0-.36.14-.82-.22-1.05s-.66.21-.93.42q-14.34 11.14-28.6 22.3c-.61.48-1.11 1.17-2 1.26l-.02-33.46z" fill="#38761D"></path><path d="M87.59 45.21v33.46c-2-.87-3.48-2.46-5.16-3.76-8.43-6.55-16.79-13.16-25.2-19.74-.32-.25-.61-.79-1.06-.58s-.28.86-.29 1.31v6.59c-1.67-1.23-3-2.21-4.32-3.2C43.75 53.41 36 47.51 28.14 41.66A2.93 2.93 0 0 1 26.77 39c.05-12.41 0-24.82 0-37.23 0-.57-.3-1.39.21-1.65s1.09.45 1.57.82q29.56 22.12 59.04 44.27zM87.64 190.85c-1.47-.49-2.45-1.67-3.61-2.59q-17.64-14-35.24-28.12a2.63 2.63 0 0 1-1.2-2.27v-30c0-.46-.24-1.1.22-1.34s.92.38 1.31.69q19.2 15.3 38.38 30.64c0 1.12.07 2.24.07 3.37q.07 14.82.07 29.62z" fill="#6AA84F"></path><path d="M87.64 190.85v-29.59c0-1.13 0-2.25-.07-3.37q8.58-6.81 17.14-13.61 10.71-8.53 21.4-17.07c.38-.3.72-1 1.31-.66s.22.89.22 1.35v30a2.53 2.53 0 0 1-1.05 2.19q-18.67 14.89-37.35 29.82c-.48.35-.89.91-1.6.94z" fill="#38761D"></path></svg></svg> <!----></g></g> <g transform="translate(0,72.3246078491211)"><g data-gra="path-name" fill-rule="" class="tp-name iconsvg-namesvg"><g transform="scale(1)"><g><path d="M1.67 0L1.67-19.41 8.43-19.41Q11.32-19.41 11.32-16.68L11.32-16.68 11.32-2.73Q11.32 0 8.43 0L8.43 0 1.67 0ZM8.5-3.1L8.5-3.1 8.5-16.31Q8.5-16.87 8.31-17.04 8.12-17.21 7.57-17.21L7.57-17.21 4.5-17.21 4.5-2.2 7.57-2.2Q8.12-2.2 8.31-2.37 8.5-2.54 8.5-3.1ZM16.96-15.13L16.96-15.13 20-15.13Q22.91-15.13 22.91-12.37L22.91-12.37 22.91-6.7 16.8-6.7 16.8-3.1Q16.8-2.57 16.99-2.39 17.18-2.2 17.73-2.2L17.73-2.2 19.16-2.2Q19.72-2.2 19.91-2.39 20.09-2.57 20.09-3.13L20.09-3.13 20.09-4.37 22.82-4.37 22.82-2.73Q22.82 0 19.94 0L19.94 0 16.96 0Q14.08 0 14.08-2.73L14.08-2.73 14.08-12.37Q14.08-15.13 16.96-15.13ZM16.8-12.03L16.8-8.74 20.15-8.74 20.15-12.03Q20.15-12.56 19.98-12.74 19.81-12.93 19.25-12.93L19.25-12.93 17.73-12.93Q17.18-12.93 16.99-12.74 16.8-12.56 16.8-12.03L16.8-12.03ZM24.06-15.13L26.85-15.13 28.83-2.36 30.85-15.13 33.64-15.13 30.85 0 26.85 0 24.06-15.13ZM37.98-18.01L35.07-18.01 35.07-20.77 37.98-20.77 37.98-18.01ZM37.92-15.13L37.92 0 35.13 0 35.13-15.13 37.92-15.13ZM49.2-12.37L49.2-10.36 46.45-10.36 46.45-11.97Q46.45-12.53 46.26-12.7 46.07-12.87 45.52-12.87L45.52-12.87 44.18-12.87Q43.62-12.87 43.44-12.7 43.25-12.53 43.25-11.97L43.25-11.97 43.25-3.16Q43.25-2.6 43.44-2.43 43.62-2.26 44.18-2.26L44.18-2.26 45.52-2.26Q46.07-2.26 46.26-2.43 46.45-2.6 46.45-3.16L46.45-3.16 46.45-4.77 49.2-4.77 49.2-2.73Q49.2 0 46.29 0L46.29 0 43.34 0Q40.46 0 40.46-2.73L40.46-2.73 40.46-12.37Q40.46-15.13 43.34-15.13L43.34-15.13 46.29-15.13Q49.2-15.13 49.2-12.37L49.2-12.37ZM54.35-15.13L54.35-15.13 57.39-15.13Q60.3-15.13 60.3-12.37L60.3-12.37 60.3-6.7 54.2-6.7 54.2-3.1Q54.2-2.57 54.38-2.39 54.57-2.2 55.13-2.2L55.13-2.2 56.55-2.2Q57.11-2.2 57.3-2.39 57.48-2.57 57.48-3.13L57.48-3.13 57.48-4.37 60.21-4.37 60.21-2.73Q60.21 0 57.33 0L57.33 0 54.35 0Q51.47 0 51.47-2.73L51.47-2.73 51.47-12.37Q51.47-15.13 54.35-15.13ZM54.2-12.03L54.2-8.74 57.55-8.74 57.55-12.03Q57.55-12.56 57.37-12.74 57.2-12.93 56.65-12.93L56.65-12.93 55.13-12.93Q54.57-12.93 54.38-12.74 54.2-12.56 54.2-12.03L54.2-12.03ZM67.25-7.84L65.73-7.84 65.73 0 62.94 0 62.94-19.41 69.3-19.41Q72.18-19.41 72.18-16.68L72.18-16.68 72.18-10.6Q72.18-8.25 70.1-7.91L70.1-7.91 73.17 0 70.16 0 67.25-7.84ZM68.46-17.15L65.73-17.15 65.73-10.08 68.46-10.08Q69.02-10.08 69.2-10.25 69.39-10.42 69.39-10.98L69.39-10.98 69.39-16.25Q69.39-16.8 69.2-16.98 69.02-17.15 68.46-17.15L68.46-17.15ZM77.79-15.13L77.79-15.13 80.83-15.13Q83.74-15.13 83.74-12.37L83.74-12.37 83.74-6.7 77.64-6.7 77.64-3.1Q77.64-2.57 77.82-2.39 78.01-2.2 78.57-2.2L78.57-2.2 79.99-2.2Q80.55-2.2 80.74-2.39 80.92-2.57 80.92-3.13L80.92-3.13 80.92-4.37 83.65-4.37 83.65-2.73Q83.65 0 80.77 0L80.77 0 77.79 0Q74.91 0 74.91-2.73L74.91-2.73 74.91-12.37Q74.91-15.13 77.79-15.13ZM77.64-12.03L77.64-8.74 80.98-8.74 80.98-12.03Q80.98-12.56 80.81-12.74 80.64-12.93 80.09-12.93L80.09-12.93 78.57-12.93Q78.01-12.93 77.82-12.74 77.64-12.56 77.64-12.03L77.64-12.03ZM88.92-20.74L88.92 0 86.13 0 86.13-20.74 88.92-20.74ZM94.5-18.01L91.59-18.01 91.59-20.77 94.5-20.77 94.5-18.01ZM94.44-15.13L94.44 0 91.65 0 91.65-15.13 94.44-15.13ZM102.53-20.74L102.53-18.39 101.23-18.39Q100.67-18.39 100.49-18.22 100.3-18.04 100.3-17.49L100.3-17.49 100.3-15.13 102.53-15.13 102.53-12.87 100.3-12.87 100.3 0 97.51 0 97.51-12.87 95.99-12.87 95.99-15.13 97.51-15.13 97.51-18.01Q97.51-20.74 100.39-20.74L100.39-20.74 102.53-20.74ZM106.87-15.13L106.87-15.13 109.91-15.13Q112.83-15.13 112.83-12.37L112.83-12.37 112.83-6.7 106.72-6.7 106.72-3.1Q106.72-2.57 106.9-2.39 107.09-2.2 107.65-2.2L107.65-2.2 109.08-2.2Q109.63-2.2 109.82-2.39 110.01-2.57 110.01-3.13L110.01-3.13 110.01-4.37 112.73-4.37 112.73-2.73Q112.73 0 109.85 0L109.85 0 106.87 0Q103.99 0 103.99-2.73L103.99-2.73 103.99-12.37Q103.99-15.13 106.87-15.13ZM106.72-12.03L106.72-8.74 110.07-8.74 110.07-12.03Q110.07-12.56 109.9-12.74 109.73-12.93 109.17-12.93L109.17-12.93 107.65-12.93Q107.09-12.93 106.9-12.74 106.72-12.56 106.72-12.03L106.72-12.03Z" transform="translate(-1.6700000762939453, 20.770000457763672)"></path></g> <!----> <!----> <!----> <!----> <!----> <!----> <!----></g></g> <!----></g></g><defs v-gra="od"></defs></svg>