<svg data-v-decfdd8a="" version="1.0" xmlns="http://www.w3.org/2000/svg" xmlns:xlink="http://www.w3.org/1999/xlink" width="100%" height="100%" viewBox="0 0 340.000000 300.000000" preserveAspectRatio="xMidYMid meet" color-interpolation-filters="sRGB" style="margin: auto;">
    <rect data-v-decfdd8a="" x="0" y="0" width="100%" height="100%" fill-opacity="0"></rect>
    <!---->
    <g data-v-decfdd8a="" fill="#38761D" class="icon-text-wrapper icon-svg-group iconsvg" transform="translate(0,0)">
        <g class="iconsvg-imagesvg" transform="translate(0,0)">
            <g>
                <rect fill="#38761D" fill-opacity="0" stroke-width="2" x="0" y="0" width="100%" height="100%" class="image-rect"></rect>
                <svg x="0" y="0" width="100%" height="100%" filtersec="colorsb1271613372" class="image-svg-svg primary" style="overflow: visible;">
                    <svg xmlns="http://www.w3.org/2000/svg" viewBox="-0.000055655837059020996 0.02899777889251709 175.26791381835938 190.82101440429688">
                        <path d="M87.57 100.49q10.89-8.16 21.77-16.33L173.27 36a7.68 7.68 0 0 1 .65-.47c.31-.2.59-.57 1-.39s.29.64.29 1v3.06q0 40.14.05 80.26a4.26 4.26 0 0 1-1.84 3.77c-8.17 6.37-16.26 12.84-24.39 19.26-.4.32-.77 1-1.31.76s-.31-1.07-.31-1.63V90.37a7.44 7.44 0 0 0-.22-2.78c-1.82 1.38-3.55 2.69-5.26 4L89 132.75c-.41.32-.77.77-1.38.74z" fill="#38761D"></path>
                        <path d="M87.57 100.49l.06 33c-2.3-1.08-4.09-2.88-6.06-4.41q-26.23-20.34-52.4-40.73c-.33-.25-.62-.76-1.07-.57s-.27.75-.28 1.15c0 2.95-.05 5.91-.06 8.86v44c0 .49.32 1.19-.31 1.44s-.8-.43-1.16-.71q-12.51-9.9-25-19.78a2.77 2.77 0 0 1-1.2-2.43V37.62c0-.82-.35-2 .33-2.39s1.34.67 2 1.14L87 100.14a6.06 6.06 0 0 0 .57.35z" fill="#6AA84F"></path>
                        <path d="M87.59 45.21L139.89 6c2.45-1.84 4.89-3.67 7.35-5.49.28-.21.54-.64 1-.42s.26.67.26 1v38.52a2 2 0 0 1-.93 1.73q-13.53 10.14-27 20.32c-.28.21-.5.68-.94.4s-.27-.68-.27-1v-5.32c0-.36.14-.82-.22-1.05s-.66.21-.93.42q-14.34 11.14-28.6 22.3c-.61.48-1.11 1.17-2 1.26l-.02-33.46z" fill="#38761D"></path>
                        <path d="M87.59 45.21v33.46c-2-.87-3.48-2.46-5.16-3.76-8.43-6.55-16.79-13.16-25.2-19.74-.32-.25-.61-.79-1.06-.58s-.28.86-.29 1.31v6.59c-1.67-1.23-3-2.21-4.32-3.2C43.75 53.41 36 47.51 28.14 41.66A2.93 2.93 0 0 1 26.77 39c.05-12.41 0-24.82 0-37.23 0-.57-.3-1.39.21-1.65s1.09.45 1.57.82q29.56 22.12 59.04 44.27zM87.64 190.85c-1.47-.49-2.45-1.67-3.61-2.59q-17.64-14-35.24-28.12a2.63 2.63 0 0 1-1.2-2.27v-30c0-.46-.24-1.1.22-1.34s.92.38 1.31.69q19.2 15.3 38.38 30.64c0 1.12.07 2.24.07 3.37q.07 14.82.07 29.62z" fill="#6AA84F"></path>
                        <path d="M87.64 190.85v-29.59c0-1.13 0-2.25-.07-3.37q8.58-6.81 17.14-13.61 10.71-8.53 21.4-17.07c.38-.3.72-1 1.31-.66s.22.89.22 1.35v30a2.53 2.53 0 0 1-1.05 2.19q-18.67 14.89-37.35 29.82c-.48.35-.89.91-1.6.94z" fill="#38761D"></path>
                    </svg>
                </svg>
            </g>
        </g>
    </g>
    <defs v-gra="od"></defs>
</svg>